<mxfile host="65bd71144e">
    <diagram name="第 1 页" id="OAXwJTua5xjFe8cNumW7">
        <mxGraphModel dx="854" dy="663" grid="1" gridSize="10" guides="1" tooltips="1" connect="1" arrows="1" fold="1" page="0" pageScale="1" pageWidth="827" pageHeight="1169" math="0" shadow="0">
            <root>
                <mxCell id="0"/>
                <mxCell id="1" parent="0"/>
                <mxCell id="eeyWbQEUU-8sGPETifnk-1" value="client" style="rounded=1;whiteSpace=wrap;html=1;" parent="1" vertex="1">
                    <mxGeometry x="460" y="285" width="80" height="40" as="geometry"/>
                </mxCell>
                <mxCell id="eeyWbQEUU-8sGPETifnk-2" value="client stub" style="rounded=1;whiteSpace=wrap;html=1;" parent="1" vertex="1">
                    <mxGeometry x="660" y="285" width="80" height="40" as="geometry"/>
                </mxCell>
                <mxCell id="eeyWbQEUU-8sGPETifnk-3" value="server stub" style="rounded=1;whiteSpace=wrap;html=1;" parent="1" vertex="1">
                    <mxGeometry x="860" y="285" width="80" height="40" as="geometry"/>
                </mxCell>
                <mxCell id="eeyWbQEUU-8sGPETifnk-4" value="server" style="rounded=1;whiteSpace=wrap;html=1;" parent="1" vertex="1">
                    <mxGeometry x="1060" y="285" width="80" height="40" as="geometry"/>
                </mxCell>
                <mxCell id="eeyWbQEUU-8sGPETifnk-5" value="" style="endArrow=none;dashed=1;html=1;rounded=0;entryX=0.5;entryY=1;entryDx=0;entryDy=0;" parent="1" target="eeyWbQEUU-8sGPETifnk-1" edge="1">
                    <mxGeometry width="50" height="50" relative="1" as="geometry">
                        <mxPoint x="500" y="885" as="sourcePoint"/>
                        <mxPoint x="796" y="345" as="targetPoint"/>
                    </mxGeometry>
                </mxCell>
                <mxCell id="eeyWbQEUU-8sGPETifnk-6" value="" style="endArrow=none;dashed=1;html=1;rounded=0;entryX=0.5;entryY=1;entryDx=0;entryDy=0;" parent="1" target="eeyWbQEUU-8sGPETifnk-2" edge="1">
                    <mxGeometry width="50" height="50" relative="1" as="geometry">
                        <mxPoint x="700" y="885" as="sourcePoint"/>
                        <mxPoint x="699.76" y="325" as="targetPoint"/>
                    </mxGeometry>
                </mxCell>
                <mxCell id="eeyWbQEUU-8sGPETifnk-7" value="" style="endArrow=none;dashed=1;html=1;rounded=0;entryX=0.5;entryY=1;entryDx=0;entryDy=0;" parent="1" target="eeyWbQEUU-8sGPETifnk-3" edge="1">
                    <mxGeometry width="50" height="50" relative="1" as="geometry">
                        <mxPoint x="900" y="885" as="sourcePoint"/>
                        <mxPoint x="900" y="325" as="targetPoint"/>
                    </mxGeometry>
                </mxCell>
                <mxCell id="eeyWbQEUU-8sGPETifnk-8" value="" style="endArrow=none;dashed=1;html=1;rounded=0;entryX=0.5;entryY=1;entryDx=0;entryDy=0;" parent="1" target="eeyWbQEUU-8sGPETifnk-4" edge="1">
                    <mxGeometry width="50" height="50" relative="1" as="geometry">
                        <mxPoint x="1100" y="885" as="sourcePoint"/>
                        <mxPoint x="1100" y="325" as="targetPoint"/>
                    </mxGeometry>
                </mxCell>
                <mxCell id="eeyWbQEUU-8sGPETifnk-9" value="" style="endArrow=classic;html=1;rounded=0;" parent="1" edge="1">
                    <mxGeometry width="50" height="50" relative="1" as="geometry">
                        <mxPoint x="506" y="375" as="sourcePoint"/>
                        <mxPoint x="696" y="375" as="targetPoint"/>
                    </mxGeometry>
                </mxCell>
                <mxCell id="eeyWbQEUU-8sGPETifnk-10" value="客户端调用" style="edgeLabel;html=1;align=center;verticalAlign=middle;resizable=0;points=[];" parent="eeyWbQEUU-8sGPETifnk-9" vertex="1" connectable="0">
                    <mxGeometry x="0.0035" y="1" relative="1" as="geometry">
                        <mxPoint as="offset"/>
                    </mxGeometry>
                </mxCell>
                <mxCell id="eeyWbQEUU-8sGPETifnk-11" value="" style="curved=1;endArrow=classic;html=1;rounded=0;" parent="1" edge="1">
                    <mxGeometry width="50" height="50" relative="1" as="geometry">
                        <mxPoint x="706" y="375" as="sourcePoint"/>
                        <mxPoint x="706" y="425" as="targetPoint"/>
                        <Array as="points">
                            <mxPoint x="806" y="375"/>
                            <mxPoint x="806" y="425"/>
                        </Array>
                    </mxGeometry>
                </mxCell>
                <mxCell id="eeyWbQEUU-8sGPETifnk-12" value="将入参等消息序列化" style="edgeLabel;html=1;align=center;verticalAlign=middle;resizable=0;points=[];" parent="eeyWbQEUU-8sGPETifnk-11" vertex="1" connectable="0">
                    <mxGeometry x="-0.0004" y="1" relative="1" as="geometry">
                        <mxPoint as="offset"/>
                    </mxGeometry>
                </mxCell>
                <mxCell id="eeyWbQEUU-8sGPETifnk-13" value="" style="endArrow=classic;html=1;rounded=0;" parent="1" edge="1">
                    <mxGeometry width="50" height="50" relative="1" as="geometry">
                        <mxPoint x="706" y="455" as="sourcePoint"/>
                        <mxPoint x="896" y="455" as="targetPoint"/>
                    </mxGeometry>
                </mxCell>
                <mxCell id="eeyWbQEUU-8sGPETifnk-14" value="网络传输请求消息" style="edgeLabel;html=1;align=center;verticalAlign=middle;resizable=0;points=[];" parent="eeyWbQEUU-8sGPETifnk-13" vertex="1" connectable="0">
                    <mxGeometry x="-0.0015" y="-1" relative="1" as="geometry">
                        <mxPoint as="offset"/>
                    </mxGeometry>
                </mxCell>
                <mxCell id="eeyWbQEUU-8sGPETifnk-15" value="" style="curved=1;endArrow=classic;html=1;rounded=0;" parent="1" edge="1">
                    <mxGeometry width="50" height="50" relative="1" as="geometry">
                        <mxPoint x="906" y="475" as="sourcePoint"/>
                        <mxPoint x="906" y="525" as="targetPoint"/>
                        <Array as="points">
                            <mxPoint x="1006" y="475"/>
                            <mxPoint x="1006" y="525"/>
                        </Array>
                    </mxGeometry>
                </mxCell>
                <mxCell id="eeyWbQEUU-8sGPETifnk-16" value="反序列化请求消息" style="edgeLabel;html=1;align=center;verticalAlign=middle;resizable=0;points=[];" parent="eeyWbQEUU-8sGPETifnk-15" vertex="1" connectable="0">
                    <mxGeometry x="-0.0004" y="1" relative="1" as="geometry">
                        <mxPoint as="offset"/>
                    </mxGeometry>
                </mxCell>
                <mxCell id="eeyWbQEUU-8sGPETifnk-17" value="" style="endArrow=classic;html=1;rounded=0;" parent="1" edge="1">
                    <mxGeometry width="50" height="50" relative="1" as="geometry">
                        <mxPoint x="906" y="555" as="sourcePoint"/>
                        <mxPoint x="1096" y="555" as="targetPoint"/>
                    </mxGeometry>
                </mxCell>
                <mxCell id="eeyWbQEUU-8sGPETifnk-18" value="调用本地服务" style="edgeLabel;html=1;align=center;verticalAlign=middle;resizable=0;points=[];" parent="eeyWbQEUU-8sGPETifnk-17" vertex="1" connectable="0">
                    <mxGeometry x="-0.0015" y="-1" relative="1" as="geometry">
                        <mxPoint as="offset"/>
                    </mxGeometry>
                </mxCell>
                <mxCell id="eeyWbQEUU-8sGPETifnk-19" value="" style="curved=1;endArrow=classic;html=1;rounded=0;" parent="1" edge="1">
                    <mxGeometry width="50" height="50" relative="1" as="geometry">
                        <mxPoint x="1113" y="575" as="sourcePoint"/>
                        <mxPoint x="1113" y="625" as="targetPoint"/>
                        <Array as="points">
                            <mxPoint x="1213" y="575"/>
                            <mxPoint x="1213" y="625"/>
                        </Array>
                    </mxGeometry>
                </mxCell>
                <mxCell id="eeyWbQEUU-8sGPETifnk-20" value="服务端处理业务逻辑" style="edgeLabel;html=1;align=center;verticalAlign=middle;resizable=0;points=[];" parent="eeyWbQEUU-8sGPETifnk-19" vertex="1" connectable="0">
                    <mxGeometry x="-0.0004" y="1" relative="1" as="geometry">
                        <mxPoint as="offset"/>
                    </mxGeometry>
                </mxCell>
                <mxCell id="eeyWbQEUU-8sGPETifnk-21" value="" style="endArrow=classic;html=1;rounded=0;" parent="1" edge="1">
                    <mxGeometry width="50" height="50" relative="1" as="geometry">
                        <mxPoint x="1096" y="645" as="sourcePoint"/>
                        <mxPoint x="906" y="645" as="targetPoint"/>
                    </mxGeometry>
                </mxCell>
                <mxCell id="eeyWbQEUU-8sGPETifnk-22" value="返回处理结果" style="edgeLabel;html=1;align=center;verticalAlign=middle;resizable=0;points=[];" parent="eeyWbQEUU-8sGPETifnk-21" vertex="1" connectable="0">
                    <mxGeometry x="0.012" y="-1" relative="1" as="geometry">
                        <mxPoint as="offset"/>
                    </mxGeometry>
                </mxCell>
                <mxCell id="eeyWbQEUU-8sGPETifnk-23" value="" style="curved=1;endArrow=classic;html=1;rounded=0;" parent="1" edge="1">
                    <mxGeometry width="50" height="50" relative="1" as="geometry">
                        <mxPoint x="906" y="670" as="sourcePoint"/>
                        <mxPoint x="906" y="720" as="targetPoint"/>
                        <Array as="points">
                            <mxPoint x="1006" y="670"/>
                            <mxPoint x="1006" y="720"/>
                        </Array>
                    </mxGeometry>
                </mxCell>
                <mxCell id="eeyWbQEUU-8sGPETifnk-24" value="序列化返回结果" style="edgeLabel;html=1;align=center;verticalAlign=middle;resizable=0;points=[];" parent="eeyWbQEUU-8sGPETifnk-23" vertex="1" connectable="0">
                    <mxGeometry x="-0.0004" y="1" relative="1" as="geometry">
                        <mxPoint as="offset"/>
                    </mxGeometry>
                </mxCell>
                <mxCell id="eeyWbQEUU-8sGPETifnk-25" value="" style="endArrow=classic;html=1;rounded=0;" parent="1" edge="1">
                    <mxGeometry width="50" height="50" relative="1" as="geometry">
                        <mxPoint x="895" y="745" as="sourcePoint"/>
                        <mxPoint x="705" y="745" as="targetPoint"/>
                    </mxGeometry>
                </mxCell>
                <mxCell id="eeyWbQEUU-8sGPETifnk-26" value="网络传输返回结果消息" style="edgeLabel;html=1;align=center;verticalAlign=middle;resizable=0;points=[];" parent="eeyWbQEUU-8sGPETifnk-25" vertex="1" connectable="0">
                    <mxGeometry x="0.012" y="-1" relative="1" as="geometry">
                        <mxPoint as="offset"/>
                    </mxGeometry>
                </mxCell>
                <mxCell id="eeyWbQEUU-8sGPETifnk-27" value="" style="curved=1;endArrow=classic;html=1;rounded=0;" parent="1" edge="1">
                    <mxGeometry width="50" height="50" relative="1" as="geometry">
                        <mxPoint x="706" y="775" as="sourcePoint"/>
                        <mxPoint x="706" y="825" as="targetPoint"/>
                        <Array as="points">
                            <mxPoint x="806" y="775"/>
                            <mxPoint x="806" y="825"/>
                        </Array>
                    </mxGeometry>
                </mxCell>
                <mxCell id="eeyWbQEUU-8sGPETifnk-28" value="反序列化返回结果" style="edgeLabel;html=1;align=center;verticalAlign=middle;resizable=0;points=[];" parent="eeyWbQEUU-8sGPETifnk-27" vertex="1" connectable="0">
                    <mxGeometry x="-0.0004" y="1" relative="1" as="geometry">
                        <mxPoint as="offset"/>
                    </mxGeometry>
                </mxCell>
                <mxCell id="eeyWbQEUU-8sGPETifnk-29" value="" style="endArrow=classic;html=1;rounded=0;" parent="1" edge="1">
                    <mxGeometry width="50" height="50" relative="1" as="geometry">
                        <mxPoint x="696" y="855" as="sourcePoint"/>
                        <mxPoint x="506" y="855" as="targetPoint"/>
                    </mxGeometry>
                </mxCell>
                <mxCell id="eeyWbQEUU-8sGPETifnk-30" value="Text" style="edgeLabel;html=1;align=center;verticalAlign=middle;resizable=0;points=[];" parent="eeyWbQEUU-8sGPETifnk-29" vertex="1" connectable="0">
                    <mxGeometry x="0.0481" y="-2" relative="1" as="geometry">
                        <mxPoint as="offset"/>
                    </mxGeometry>
                </mxCell>
                <mxCell id="eeyWbQEUU-8sGPETifnk-31" value="返回调用结果" style="edgeLabel;html=1;align=center;verticalAlign=middle;resizable=0;points=[];" parent="eeyWbQEUU-8sGPETifnk-29" vertex="1" connectable="0">
                    <mxGeometry x="0.018" y="-1" relative="1" as="geometry">
                        <mxPoint as="offset"/>
                    </mxGeometry>
                </mxCell>
            </root>
        </mxGraphModel>
    </diagram>
</mxfile>